<?xml version="1.0" standalone="no"?>
<!DOCTYPE svg PUBLIC "-//W3C//DTD SVG 20010904//EN"
 "http://www.w3.org/TR/2001/REC-SVG-20010904/DTD/svg10.dtd">
<svg version="1.0" xmlns="http://www.w3.org/2000/svg"
 width="225.000000pt" height="225.000000pt" viewBox="0 0 225.000000 225.000000"
 preserveAspectRatio="xMidYMid meet">

<g transform="translate(0.000000,225.000000) scale(0.100000,-0.100000)"
fill="#000000" stroke="none">
<path d="M1885 1920 c-369 -56 -814 -369 -1182 -831 -48 -60 -90 -109 -93
-109 -3 0 -20 29 -39 65 -42 81 -150 199 -225 244 -68 40 -164 76 -229 84 -43
6 -47 5 -39 -11 5 -9 118 -245 253 -525 134 -279 246 -507 249 -507 3 0 24 30
45 68 363 621 931 1196 1446 1462 l104 54 -40 7 c-50 10 -184 9 -250 -1z"/>
</g>
</svg>
